<svg viewBox="0 0 16 16" xmlns="http://www.w3.org/2000/svg">
  <rect x="0" y="0" width="16" height="16" rx="1"></rect>
  <g fill="#FFFFFF">
    <path d="M11,1 L15,1 L15,14.5 C15,14.7761424 14.7761424,15 14.5,15 L11.5,15 C11.2238576,15 11,14.7761424 11,14.5 L11,1 L11,1 Z"></path>
    <path d="M6,1 L10,1 L10,14.5 C10,14.7761424 9.77614237,15 9.5,15 L6.5,15 C6.22385763,15 6,14.7761424 6,14.5 L6,1 L6,1 Z"></path>
    <path d="M1,1 L5,1 L5,14.5 C5,14.7761424 4.77614237,15 4.5,15 L1.5,15 C1.22385763,15 1,14.7761424 1,14.5 L1,1 L1,1 Z"></path>
  </g>
  <path d="M4,1 L7,1 L7,9.5 C7,9.77614237 6.77614237,10 6.5,10 L4.5,10 C4.22385763,10 4,9.77614237 4,9.5 L4,1 L4,1 Z"></path>
  <path d="M9,1 L12,1 L12,9.5 C12,9.77614237 11.7761424,10 11.5,10 L9.5,10 C9.22385763,10 9,9.77614237 9,9.5 L9,1 L9,1 Z"></path>
</svg>
