<svg width="1024px" height="1024px" viewBox="0 0 18 18" xmlns="http://www.w3.org/2000/svg">
  <rect x="0" y="0" width="18" height="18"></rect>
  <g fill="#FFFFFF">
    <path d="M12,0 L16,0 L16,15.5 C16,15.7761424 15.7761424,16 15.5,16 L12.5,16 C12.2238576,16 12,15.7761424 12,15.5 L12,0 L12,0 Z"></path>
    <path d="M7,0 L11,0 L11,15.5 C11,15.7761424 10.7761424,16 10.5,16 L7.5,16 C7.22385763,16 7,15.7761424 7,15.5 L7,0 L7,0 Z"></path>
    <path d="M2,0 L6,0 L6,15.5 C6,15.7761424 5.77614237,16 5.5,16 L2.5,16 C2.22385763,16 2,15.7761424 2,15.5 L2,0 L2,0 Z"></path>
  </g>
  <path d="M5,0 L8,0 L8,10.5 C8,10.7761424 7.77614237,11 7.5,11 L5.5,11 C5.22385763,11 5,10.7761424 5,10.5 L5,0 L5,0 Z"></path>
  <path d="M10,0 L13,0 L13,10.5 C13,10.7761424 12.7761424,11 12.5,11 L10.5,11 C10.2238576,11 10,10.7761424 10,10.5 L10,0 L10,0 Z"></path>
</svg>
